<?xml version="1.0" encoding="UTF-8" standalone="no"?>
<svg
   xmlns:dc="http://purl.org/dc/elements/1.1/"
   xmlns:cc="http://creativecommons.org/ns#"
   xmlns:rdf="http://www.w3.org/1999/02/22-rdf-syntax-ns#"
   xmlns:svg="http://www.w3.org/2000/svg"
   xmlns="http://www.w3.org/2000/svg"
   viewBox="0 0 768 768"
   height="768"
   width="768"
   id="svg2"
   version="1.1">
  <metadata
     id="metadata8">
    <rdf:RDF>
      <cc:Work
         rdf:about="">
        <dc:format>image/svg+xml</dc:format>
        <dc:type
           rdf:resource="http://purl.org/dc/dcmitype/StillImage" />
        <dc:title></dc:title>
      </cc:Work>
    </rdf:RDF>
  </metadata>
  <defs
     id="defs6" />
  <path
     id="path823"
     d="m 139,679.27847 c -3.6948,-1.38835 -7.38097,-4.9063 -9.09457,-8.67954 -1.78446,-3.92929 -1.86241,-9.48959 -1.88347,-134.34893 -0.0175,-104.02625 0.23146,-130.25 1.23676,-130.25 0.6923,0 30.27587,9.675 65.74128,21.5 35.46541,11.825 65.09264,21.5 65.8383,21.5 0.74566,0 21.59456,-9.48568 46.33089,-21.0793 24.73633,-11.59361 45.53324,-20.86513 46.21536,-20.60337 0.68213,0.26175 15.16215,10.34955 32.17784,22.41733 17.01568,12.06779 31.87168,22.52357 33.01332,23.23508 1.87834,1.17065 6.46039,-1.14361 48.18736,-24.33804 C 492.12447,414.53427 513.50323,403 514.27141,403 c 0.76819,0 14.10473,13.50369 29.63677,30.00821 19.10367,20.29977 28.65223,29.76291 29.51404,29.25 0.70068,-0.41702 15.58611,-15.51693 33.07873,-33.55536 17.78908,-18.34416 32.18431,-32.41759 32.66606,-31.93584 0.47589,0.47589 0.74311,61.49984 0.59715,136.37041 l -0.26416,135.5091 -2.66076,4.02045 c -5.3321,8.05689 19.5822,7.34251 -252.99037,7.25408 C 250.00699,679.87763 139.825,679.58847 139,679.27847 Z m 484.39301,-16.86026 c 0.80359,-2.09411 0.55591,-212.06803 -0.25989,-220.33011 L 622.5,435.67619 598.10848,460.8381 C 584.69314,474.67714 573.17999,486 572.52371,486 c -0.65629,0 -13.59474,-13.1625 -28.7521,-29.25 -15.15737,-16.0875 -28.69952,-30.31069 -30.09368,-31.6071 l -2.53483,-2.35709 -45.56699,25.21583 c -25.89504,14.32978 -46.19853,24.97349 -47.02985,24.65449 -0.80456,-0.30875 -16.08563,-10.93268 -33.95793,-23.60874 C 366.71604,436.37132 351.5436,426 350.87181,426 c -0.67179,0 -20.98512,9.26648 -45.14073,20.59219 l -43.91928,20.59219 -58.00842,-19.58785 c -31.90463,-10.77332 -58.41228,-19.33824 -58.9059,-19.03317 -1.03332,0.63863 -1.26249,233.73829 -0.23081,234.76997 C 145.03333,663.7 252.76019,664 384.05968,664 c 216.76471,0 238.78218,-0.14552 239.33333,-1.58179 z M 551.54272,372.29016 c -16.52575,-21.06499 -22.31489,-27.77969 -23.92223,-27.74691 -1.16627,0.0238 -19.10353,11.38629 -39.86058,25.25 C 467.00287,383.65696 449.29265,395 448.40387,395 c -0.88878,0 -22.72496,-11.49512 -48.52483,-25.54471 l -46.90886,-25.54471 -45.20052,24.17951 -45.20053,24.17951 -65.03456,-16.30313 C 161.76556,366.99974 131.4875,359.30022 130.25,358.85642 L 128,358.0495 V 229.68203 101.31457 l 2.30274,-4.354547 c 1.57825,-2.984512 3.68074,-5.083251 6.68261,-6.670679 L 141.36523,87.97321 319.93261,88.236605 498.5,88.5 l 8,2.810423 c 25.62987,9.003847 58.17908,29.222397 83.59066,51.923897 23.13802,20.6704 38.86789,42.36865 46.58861,64.26568 l 2.82073,8 0.2986,52.56636 0.2986,52.56637 -32.06357,39.43363 c -17.63497,21.6885 -32.65434,39.56421 -33.37638,39.7238 -0.72203,0.15958 -11.12358,-12.21542 -23.11453,-27.5 z m -61.95535,-23.34843 c 22.31293,-14.88205 41.29145,-26.91913 42.17449,-26.74907 0.88304,0.17005 10.63536,11.87612 21.67183,26.01348 11.03647,14.13737 20.52441,25.72445 21.0843,25.74908 0.99405,0.0437 45.79047,-54.19452 48.19657,-58.35505 0.89438,-1.54651 1.22391,-12.38633 1.25,-41.11804 L 624,235.46427 l -2.41222,-3.5499 c -3.09521,-4.55501 -11.52323,-10.34623 -18.74686,-12.8817 -10.85074,-3.80858 -18.52416,-4.36029 -47.84092,-3.43974 -15.125,0.47492 -37.625,0.8733 -50,0.88529 L 482.5,216.5 482.43409,168 c -0.0543,-39.97331 -0.33794,-49.70543 -1.61328,-55.35649 -0.85106,-3.77107 -2.1714,-7.25167 -2.93409,-7.73468 C 475.5985,103.45971 146.65239,103.74761 145.2,105.2 c -1.71693,1.71693 -1.74637,239.34429 -0.0298,240.4052 0.64362,0.39777 26.85612,7.14906 58.25,15.00286 l 57.0798,14.27963 45.63852,-24.44384 c 25.10119,-13.44412 46.25119,-24.43242 47,-24.41845 0.74881,0.014 21.83648,11.22893 46.86148,24.92213 25.025,13.69321 46.29164,24.93178 47.2592,24.97461 0.96755,0.0428 20.01523,-12.09836 42.32817,-26.98041 z m 54.19627,-150.99151 c 23.89227,-1.31355 32.91778,-1.19699 46.63776,0.60231 6.51108,0.8539 12.67185,1.4164 13.6906,1.25 1.29406,-0.21136 -7.69072,-8.59017 -29.81325,-27.80253 -17.41604,-15.125 -34.45051,-29.38341 -37.85437,-31.68535 -7.85469,-5.31192 -36.36754,-20.72482 -37.05949,-20.03287 -0.28639,0.28638 0.0217,6.07764 0.68472,12.86946 0.81853,8.38536 0.99274,20.87277 0.5428,38.907 -0.36443,14.60703 -0.34835,26.87249 0.0357,27.25658 0.70781,0.70781 11.85387,0.3552 43.13549,-1.3646 z M 516,165.20876 c 0,-12.2711 0.3756,-19.32286 1.05144,-19.74055 0.57829,-0.3574 7.89079,3.02987 16.25,7.52727 22.47141,12.09002 43.48435,26.55207 41.48475,28.55166 -0.30527,0.30527 -9.49454,0.70853 -20.42061,0.89614 -10.92607,0.18761 -24.02808,0.68201 -29.11558,1.09866 l -9.25,0.75755 z"
     style="fill:#8e908c" />
</svg>
